G04 (created by PCBNEW (2013-07-07 BZR 4022)-stable) date 10/06/2014 19:35:49*
%MOIN*%
G04 Gerber Fmt 3.4, Leading zero omitted, Abs format*
%FSLAX34Y34*%
G01*
G70*
G90*
G04 APERTURE LIST*
%ADD10C,0.00590551*%
%ADD11C,0.055*%
%ADD12C,0.065*%
%ADD13R,0.055X0.055*%
%ADD14C,0.0708661*%
%ADD15C,0.16*%
%ADD16C,0.01*%
G04 APERTURE END LIST*
G54D10*
G54D11*
X49750Y-25500D03*
X53250Y-25500D03*
X61000Y-13500D03*
X61000Y-17000D03*
X59500Y-13500D03*
X59500Y-17000D03*
X58000Y-13500D03*
X58000Y-17000D03*
X55614Y-23220D03*
X57386Y-23220D03*
X55614Y-25780D03*
X57386Y-25780D03*
X59614Y-23220D03*
X61386Y-23220D03*
X59614Y-25780D03*
X61386Y-25780D03*
X63614Y-23220D03*
X65386Y-23220D03*
X63614Y-25780D03*
X65386Y-25780D03*
G54D12*
X66750Y-17540D03*
X66750Y-21460D03*
G54D13*
X52500Y-23500D03*
G54D11*
X51500Y-23500D03*
X50500Y-23500D03*
X50500Y-21500D03*
X51500Y-21500D03*
X52500Y-21500D03*
X53500Y-21500D03*
X54500Y-21500D03*
X55500Y-21500D03*
X56500Y-21500D03*
X57500Y-21500D03*
X58500Y-21500D03*
X59500Y-21500D03*
X60500Y-21500D03*
X61500Y-21500D03*
X62500Y-21500D03*
G54D13*
X49500Y-21500D03*
G54D11*
X62500Y-18500D03*
X61500Y-18500D03*
X60500Y-18500D03*
X59500Y-18500D03*
X58500Y-18500D03*
X57500Y-18500D03*
X56500Y-18500D03*
X55500Y-18500D03*
X54500Y-18500D03*
X53500Y-18500D03*
X52500Y-18500D03*
X51500Y-18500D03*
X50500Y-18500D03*
X49500Y-18500D03*
X56500Y-13500D03*
X55250Y-13500D03*
X52250Y-13500D03*
X53500Y-13500D03*
X48500Y-23500D03*
X48500Y-24750D03*
G54D14*
X48250Y-17000D03*
X48250Y-18000D03*
X48250Y-19000D03*
X48250Y-20000D03*
X48250Y-21000D03*
X48250Y-22000D03*
X50500Y-15000D03*
X49500Y-15000D03*
X48500Y-15000D03*
X47500Y-15000D03*
X54700Y-16000D03*
X52800Y-16000D03*
X50500Y-13500D03*
X49500Y-13500D03*
X48500Y-13500D03*
X47500Y-13500D03*
G54D11*
X63000Y-13750D03*
X63000Y-14750D03*
X63000Y-15750D03*
X63000Y-16750D03*
G54D15*
X45250Y-13500D03*
X64950Y-13500D03*
G54D16*
X48250Y-21000D02*
X49250Y-21000D01*
X50750Y-22250D02*
X51500Y-21500D01*
X50250Y-22250D02*
X50750Y-22250D01*
X50000Y-22000D02*
X50250Y-22250D01*
X50000Y-21000D02*
X50000Y-22000D01*
X49750Y-20750D02*
X50000Y-21000D01*
X49500Y-20750D02*
X49750Y-20750D01*
X49250Y-21000D02*
X49500Y-20750D01*
X61386Y-22386D02*
X60500Y-21500D01*
X61386Y-23220D02*
X61386Y-22386D01*
X64720Y-23220D02*
X64000Y-22500D01*
X64000Y-22500D02*
X62500Y-22500D01*
X62500Y-22500D02*
X61500Y-21500D01*
X65386Y-23220D02*
X64720Y-23220D01*
X61000Y-13500D02*
X62750Y-13500D01*
X62750Y-13500D02*
X63000Y-13750D01*
X59500Y-13500D02*
X59500Y-13750D01*
X60500Y-14750D02*
X63000Y-14750D01*
X59500Y-13750D02*
X60500Y-14750D01*
X61000Y-17000D02*
X61000Y-18000D01*
X61000Y-18000D02*
X61500Y-18500D01*
X59500Y-17000D02*
X59500Y-17500D01*
X59500Y-17500D02*
X60500Y-18500D01*
X48500Y-22500D02*
X49500Y-21500D01*
X48500Y-23500D02*
X48500Y-22500D01*
X49500Y-22500D02*
X50000Y-23000D01*
X50000Y-23000D02*
X52000Y-23000D01*
X52000Y-23000D02*
X52500Y-23500D01*
X49500Y-21500D02*
X49500Y-22500D01*
X47500Y-13500D02*
X47500Y-15000D01*
X47500Y-15000D02*
X48500Y-16000D01*
X49500Y-16500D02*
X49500Y-18500D01*
X49000Y-16000D02*
X49500Y-16500D01*
X48500Y-16000D02*
X49000Y-16000D01*
X48250Y-20000D02*
X49750Y-20000D01*
X50500Y-20750D02*
X50500Y-21500D01*
X49750Y-20000D02*
X50500Y-20750D01*
X63000Y-15750D02*
X63750Y-15750D01*
X56250Y-22250D02*
X55500Y-21500D01*
X58500Y-22250D02*
X56250Y-22250D01*
X59000Y-21750D02*
X58500Y-22250D01*
X59000Y-21250D02*
X59000Y-21750D01*
X59500Y-20750D02*
X59000Y-21250D01*
X63000Y-20750D02*
X59500Y-20750D01*
X64500Y-19250D02*
X63000Y-20750D01*
X64500Y-16500D02*
X64500Y-19250D01*
X63750Y-15750D02*
X64500Y-16500D01*
X49500Y-13500D02*
X49500Y-15000D01*
X49500Y-15000D02*
X51000Y-16500D01*
X51000Y-16500D02*
X51000Y-19250D01*
X51000Y-19250D02*
X51750Y-20000D01*
X48250Y-19000D02*
X49250Y-19000D01*
X50250Y-20000D02*
X51750Y-20000D01*
X51750Y-20000D02*
X52500Y-20000D01*
X49250Y-19000D02*
X50250Y-20000D01*
X49750Y-25500D02*
X51300Y-25500D01*
X54400Y-22600D02*
X55500Y-21500D01*
X54400Y-25500D02*
X54400Y-22600D01*
X53600Y-26300D02*
X54400Y-25500D01*
X52100Y-26300D02*
X53600Y-26300D01*
X51300Y-25500D02*
X52100Y-26300D01*
X54000Y-20000D02*
X55500Y-21500D01*
X52500Y-20000D02*
X54000Y-20000D01*
X52800Y-16000D02*
X53000Y-16000D01*
X55000Y-19000D02*
X57500Y-21500D01*
X55000Y-18000D02*
X55000Y-19000D01*
X53000Y-16000D02*
X55000Y-18000D01*
X52250Y-13500D02*
X52250Y-15450D01*
X52250Y-15450D02*
X52800Y-16000D01*
X56500Y-13500D02*
X56500Y-14200D01*
X56500Y-14200D02*
X54700Y-16000D01*
X54700Y-16000D02*
X54700Y-16450D01*
X54700Y-16450D02*
X56000Y-17750D01*
X56000Y-17750D02*
X56000Y-19000D01*
X56000Y-19000D02*
X58500Y-21500D01*
X51500Y-24000D02*
X52000Y-24500D01*
X52000Y-24500D02*
X52250Y-24500D01*
X52250Y-24500D02*
X53250Y-25500D01*
X51500Y-23500D02*
X51500Y-24000D01*
X58000Y-13500D02*
X58000Y-14750D01*
X62500Y-16250D02*
X63000Y-16750D01*
X59500Y-16250D02*
X62500Y-16250D01*
X58000Y-14750D02*
X59500Y-16250D01*
X62540Y-21460D02*
X62500Y-21500D01*
X67000Y-21460D02*
X62540Y-21460D01*
X58000Y-17000D02*
X59500Y-18500D01*
X48500Y-24750D02*
X47750Y-24750D01*
X47250Y-23000D02*
X48250Y-22000D01*
X47250Y-24250D02*
X47250Y-23000D01*
X47750Y-24750D02*
X47250Y-24250D01*
X48500Y-13500D02*
X48500Y-15000D01*
X48500Y-15000D02*
X50500Y-17000D01*
X50500Y-17000D02*
X50500Y-18500D01*
X59500Y-22500D02*
X59000Y-23000D01*
X59000Y-23000D02*
X57606Y-23000D01*
X57606Y-23000D02*
X57386Y-23220D01*
X59500Y-21500D02*
X59500Y-22500D01*
M02*
