M48
METRIC,TZ
T1C0.813
T2C1.000
T3C1.049
T4C3.048
%
G90
G05
T1
X123190Y-59690
X123190Y-62865
X125730Y-46990
X125730Y-54610
X126365Y-64770
X128270Y-46990
X128270Y-54610
X128270Y-59690
X130810Y-46990
X130810Y-54610
X130810Y-59690
X132715Y-34290
X133350Y-46990
X133350Y-54610
X133350Y-59690
X135255Y-64770
X135890Y-34290
X135890Y-46990
X135890Y-54610
X138430Y-46990
X138430Y-54610
X140335Y-34290
X140970Y-46990
X140970Y-54610
X141260Y-58979
X141260Y-65481
X143510Y-34290
X143510Y-46990
X143510Y-54610
X145760Y-58979
X145760Y-65481
X146050Y-46990
X146050Y-54610
X147320Y-34290
X147320Y-43180
X148590Y-46990
X148590Y-54610
X151130Y-34290
X151130Y-43180
X151130Y-46990
X151130Y-54610
X151420Y-58979
X151420Y-65481
X153670Y-46990
X153670Y-54610
X154940Y-34290
X154940Y-43180
X155920Y-58979
X155920Y-65481
X156210Y-46990
X156210Y-54610
X158750Y-46990
X158750Y-54610
X160020Y-34925
X160020Y-37465
X160020Y-40005
X160020Y-42545
X161580Y-58979
X161580Y-65481
X166080Y-58979
X166080Y-65481
T2
X120650Y-34290
X120650Y-38100
X122555Y-43180
X122555Y-45720
X122555Y-48260
X122555Y-50800
X122555Y-53340
X122555Y-55880
X123190Y-34290
X123190Y-38100
X125730Y-34290
X125730Y-38100
X128270Y-34290
X128270Y-38100
X134112Y-40640
X138938Y-40640
T3
X169545Y-44552
X169545Y-54508
T4
X114935Y-34290
X164973Y-34290
T0
M30
