G04 (created by PCBNEW (2013-07-07 BZR 4022)-stable) date 10/06/2014 19:35:49*
%MOIN*%
G04 Gerber Fmt 3.4, Leading zero omitted, Abs format*
%FSLAX34Y34*%
G01*
G70*
G90*
G04 APERTURE LIST*
%ADD10C,0.00590551*%
%ADD11C,0.055*%
%ADD12C,0.065*%
%ADD13R,0.055X0.055*%
%ADD14C,0.0708661*%
%ADD15C,0.16*%
%ADD16C,0.01*%
G04 APERTURE END LIST*
G54D10*
G54D11*
X49750Y-25500D03*
X53250Y-25500D03*
X61000Y-13500D03*
X61000Y-17000D03*
X59500Y-13500D03*
X59500Y-17000D03*
X58000Y-13500D03*
X58000Y-17000D03*
X55614Y-23220D03*
X57386Y-23220D03*
X55614Y-25780D03*
X57386Y-25780D03*
X59614Y-23220D03*
X61386Y-23220D03*
X59614Y-25780D03*
X61386Y-25780D03*
X63614Y-23220D03*
X65386Y-23220D03*
X63614Y-25780D03*
X65386Y-25780D03*
G54D12*
X66750Y-17540D03*
X66750Y-21460D03*
G54D13*
X52500Y-23500D03*
G54D11*
X51500Y-23500D03*
X50500Y-23500D03*
X50500Y-21500D03*
X51500Y-21500D03*
X52500Y-21500D03*
X53500Y-21500D03*
X54500Y-21500D03*
X55500Y-21500D03*
X56500Y-21500D03*
X57500Y-21500D03*
X58500Y-21500D03*
X59500Y-21500D03*
X60500Y-21500D03*
X61500Y-21500D03*
X62500Y-21500D03*
G54D13*
X49500Y-21500D03*
G54D11*
X62500Y-18500D03*
X61500Y-18500D03*
X60500Y-18500D03*
X59500Y-18500D03*
X58500Y-18500D03*
X57500Y-18500D03*
X56500Y-18500D03*
X55500Y-18500D03*
X54500Y-18500D03*
X53500Y-18500D03*
X52500Y-18500D03*
X51500Y-18500D03*
X50500Y-18500D03*
X49500Y-18500D03*
X56500Y-13500D03*
X55250Y-13500D03*
X52250Y-13500D03*
X53500Y-13500D03*
X48500Y-23500D03*
X48500Y-24750D03*
G54D14*
X48250Y-17000D03*
X48250Y-18000D03*
X48250Y-19000D03*
X48250Y-20000D03*
X48250Y-21000D03*
X48250Y-22000D03*
X50500Y-15000D03*
X49500Y-15000D03*
X48500Y-15000D03*
X47500Y-15000D03*
X54700Y-16000D03*
X52800Y-16000D03*
X50500Y-13500D03*
X49500Y-13500D03*
X48500Y-13500D03*
X47500Y-13500D03*
G54D11*
X63000Y-13750D03*
X63000Y-14750D03*
X63000Y-15750D03*
X63000Y-16750D03*
G54D15*
X45250Y-13500D03*
X64950Y-13500D03*
G54D10*
G36*
X67230Y-26230D02*
X65670Y-26230D01*
X65683Y-26225D01*
X65830Y-26077D01*
X65910Y-25884D01*
X65911Y-25676D01*
X65911Y-23116D01*
X65831Y-22923D01*
X65683Y-22775D01*
X65490Y-22695D01*
X65282Y-22694D01*
X65089Y-22774D01*
X64941Y-22922D01*
X64861Y-23115D01*
X64860Y-23323D01*
X64940Y-23517D01*
X65088Y-23664D01*
X65281Y-23744D01*
X65489Y-23745D01*
X65683Y-23665D01*
X65830Y-23517D01*
X65910Y-23324D01*
X65911Y-23116D01*
X65911Y-25676D01*
X65831Y-25483D01*
X65683Y-25335D01*
X65490Y-25255D01*
X65282Y-25254D01*
X65089Y-25334D01*
X64941Y-25482D01*
X64861Y-25675D01*
X64860Y-25883D01*
X64940Y-26077D01*
X65088Y-26224D01*
X65101Y-26230D01*
X64143Y-26230D01*
X64143Y-25855D01*
X64143Y-23295D01*
X64132Y-23087D01*
X64074Y-22947D01*
X63981Y-22922D01*
X63911Y-22993D01*
X63911Y-22852D01*
X63886Y-22759D01*
X63689Y-22690D01*
X63525Y-22699D01*
X63525Y-16646D01*
X63445Y-16453D01*
X63297Y-16305D01*
X63164Y-16249D01*
X63297Y-16195D01*
X63444Y-16047D01*
X63524Y-15854D01*
X63525Y-15646D01*
X63445Y-15453D01*
X63297Y-15305D01*
X63164Y-15249D01*
X63297Y-15195D01*
X63444Y-15047D01*
X63524Y-14854D01*
X63525Y-14646D01*
X63445Y-14453D01*
X63297Y-14305D01*
X63164Y-14249D01*
X63297Y-14195D01*
X63444Y-14047D01*
X63524Y-13854D01*
X63525Y-13646D01*
X63445Y-13453D01*
X63297Y-13305D01*
X63104Y-13225D01*
X62896Y-13224D01*
X62703Y-13304D01*
X62555Y-13452D01*
X62475Y-13645D01*
X62474Y-13853D01*
X62554Y-14047D01*
X62702Y-14194D01*
X62835Y-14250D01*
X62703Y-14304D01*
X62555Y-14452D01*
X62475Y-14645D01*
X62474Y-14853D01*
X62554Y-15047D01*
X62702Y-15194D01*
X62835Y-15250D01*
X62703Y-15304D01*
X62555Y-15452D01*
X62475Y-15645D01*
X62474Y-15853D01*
X62554Y-16047D01*
X62702Y-16194D01*
X62835Y-16250D01*
X62703Y-16304D01*
X62555Y-16452D01*
X62475Y-16645D01*
X62474Y-16853D01*
X62554Y-17047D01*
X62702Y-17194D01*
X62895Y-17274D01*
X63103Y-17275D01*
X63297Y-17195D01*
X63444Y-17047D01*
X63524Y-16854D01*
X63525Y-16646D01*
X63525Y-22699D01*
X63481Y-22701D01*
X63341Y-22759D01*
X63316Y-22852D01*
X63614Y-23149D01*
X63911Y-22852D01*
X63911Y-22993D01*
X63684Y-23220D01*
X63981Y-23517D01*
X64074Y-23492D01*
X64143Y-23295D01*
X64143Y-25855D01*
X64132Y-25647D01*
X64074Y-25507D01*
X63981Y-25482D01*
X63911Y-25553D01*
X63911Y-25412D01*
X63911Y-23587D01*
X63614Y-23290D01*
X63543Y-23361D01*
X63543Y-23220D01*
X63246Y-22922D01*
X63153Y-22947D01*
X63084Y-23144D01*
X63095Y-23352D01*
X63153Y-23492D01*
X63246Y-23517D01*
X63543Y-23220D01*
X63543Y-23361D01*
X63316Y-23587D01*
X63341Y-23680D01*
X63538Y-23749D01*
X63746Y-23738D01*
X63886Y-23680D01*
X63911Y-23587D01*
X63911Y-25412D01*
X63886Y-25319D01*
X63689Y-25250D01*
X63481Y-25261D01*
X63341Y-25319D01*
X63316Y-25412D01*
X63614Y-25709D01*
X63911Y-25412D01*
X63911Y-25553D01*
X63684Y-25780D01*
X63981Y-26077D01*
X64074Y-26052D01*
X64143Y-25855D01*
X64143Y-26230D01*
X63889Y-26230D01*
X63911Y-26147D01*
X63614Y-25850D01*
X63543Y-25921D01*
X63543Y-25780D01*
X63246Y-25482D01*
X63153Y-25507D01*
X63084Y-25704D01*
X63095Y-25912D01*
X63153Y-26052D01*
X63246Y-26077D01*
X63543Y-25780D01*
X63543Y-25921D01*
X63316Y-26147D01*
X63338Y-26230D01*
X63025Y-26230D01*
X63025Y-21396D01*
X63025Y-18396D01*
X62945Y-18203D01*
X62797Y-18055D01*
X62604Y-17975D01*
X62396Y-17974D01*
X62203Y-18054D01*
X62055Y-18202D01*
X61999Y-18335D01*
X61945Y-18203D01*
X61797Y-18055D01*
X61604Y-17975D01*
X61525Y-17975D01*
X61525Y-16896D01*
X61525Y-13396D01*
X61445Y-13203D01*
X61297Y-13055D01*
X61104Y-12975D01*
X60896Y-12974D01*
X60703Y-13054D01*
X60555Y-13202D01*
X60475Y-13395D01*
X60474Y-13603D01*
X60554Y-13797D01*
X60702Y-13944D01*
X60895Y-14024D01*
X61103Y-14025D01*
X61297Y-13945D01*
X61444Y-13797D01*
X61524Y-13604D01*
X61525Y-13396D01*
X61525Y-16896D01*
X61445Y-16703D01*
X61297Y-16555D01*
X61104Y-16475D01*
X60896Y-16474D01*
X60703Y-16554D01*
X60555Y-16702D01*
X60475Y-16895D01*
X60474Y-17103D01*
X60554Y-17297D01*
X60702Y-17444D01*
X60895Y-17524D01*
X61103Y-17525D01*
X61297Y-17445D01*
X61444Y-17297D01*
X61524Y-17104D01*
X61525Y-16896D01*
X61525Y-17975D01*
X61396Y-17974D01*
X61203Y-18054D01*
X61055Y-18202D01*
X60999Y-18335D01*
X60945Y-18203D01*
X60797Y-18055D01*
X60604Y-17975D01*
X60396Y-17974D01*
X60203Y-18054D01*
X60055Y-18202D01*
X60025Y-18274D01*
X60025Y-16896D01*
X60025Y-13396D01*
X59945Y-13203D01*
X59797Y-13055D01*
X59604Y-12975D01*
X59396Y-12974D01*
X59203Y-13054D01*
X59055Y-13202D01*
X58975Y-13395D01*
X58974Y-13603D01*
X59054Y-13797D01*
X59202Y-13944D01*
X59395Y-14024D01*
X59603Y-14025D01*
X59797Y-13945D01*
X59944Y-13797D01*
X60024Y-13604D01*
X60025Y-13396D01*
X60025Y-16896D01*
X59945Y-16703D01*
X59797Y-16555D01*
X59604Y-16475D01*
X59396Y-16474D01*
X59203Y-16554D01*
X59055Y-16702D01*
X58975Y-16895D01*
X58974Y-17103D01*
X59054Y-17297D01*
X59202Y-17444D01*
X59395Y-17524D01*
X59603Y-17525D01*
X59797Y-17445D01*
X59944Y-17297D01*
X60024Y-17104D01*
X60025Y-16896D01*
X60025Y-18274D01*
X59999Y-18335D01*
X59945Y-18203D01*
X59797Y-18055D01*
X59604Y-17975D01*
X59396Y-17974D01*
X59203Y-18054D01*
X59055Y-18202D01*
X58999Y-18335D01*
X58945Y-18203D01*
X58797Y-18055D01*
X58604Y-17975D01*
X58525Y-17975D01*
X58525Y-16896D01*
X58525Y-13396D01*
X58445Y-13203D01*
X58297Y-13055D01*
X58104Y-12975D01*
X57896Y-12974D01*
X57703Y-13054D01*
X57555Y-13202D01*
X57475Y-13395D01*
X57474Y-13603D01*
X57554Y-13797D01*
X57702Y-13944D01*
X57895Y-14024D01*
X58103Y-14025D01*
X58297Y-13945D01*
X58444Y-13797D01*
X58524Y-13604D01*
X58525Y-13396D01*
X58525Y-16896D01*
X58445Y-16703D01*
X58297Y-16555D01*
X58104Y-16475D01*
X57896Y-16474D01*
X57703Y-16554D01*
X57555Y-16702D01*
X57475Y-16895D01*
X57474Y-17103D01*
X57554Y-17297D01*
X57702Y-17444D01*
X57895Y-17524D01*
X58103Y-17525D01*
X58297Y-17445D01*
X58444Y-17297D01*
X58524Y-17104D01*
X58525Y-16896D01*
X58525Y-17975D01*
X58396Y-17974D01*
X58203Y-18054D01*
X58055Y-18202D01*
X57999Y-18335D01*
X57945Y-18203D01*
X57797Y-18055D01*
X57604Y-17975D01*
X57396Y-17974D01*
X57203Y-18054D01*
X57055Y-18202D01*
X57025Y-18274D01*
X57025Y-13396D01*
X56945Y-13203D01*
X56797Y-13055D01*
X56604Y-12975D01*
X56396Y-12974D01*
X56203Y-13054D01*
X56055Y-13202D01*
X55975Y-13395D01*
X55974Y-13603D01*
X56054Y-13797D01*
X56202Y-13944D01*
X56395Y-14024D01*
X56603Y-14025D01*
X56797Y-13945D01*
X56944Y-13797D01*
X57024Y-13604D01*
X57025Y-13396D01*
X57025Y-18274D01*
X56999Y-18335D01*
X56945Y-18203D01*
X56797Y-18055D01*
X56604Y-17975D01*
X56396Y-17974D01*
X56203Y-18054D01*
X56055Y-18202D01*
X55999Y-18335D01*
X55945Y-18203D01*
X55797Y-18055D01*
X55779Y-18047D01*
X55779Y-13575D01*
X55768Y-13367D01*
X55710Y-13227D01*
X55617Y-13202D01*
X55547Y-13273D01*
X55547Y-13132D01*
X55522Y-13039D01*
X55325Y-12970D01*
X55117Y-12981D01*
X54977Y-13039D01*
X54952Y-13132D01*
X55250Y-13429D01*
X55547Y-13132D01*
X55547Y-13273D01*
X55320Y-13500D01*
X55617Y-13797D01*
X55710Y-13772D01*
X55779Y-13575D01*
X55779Y-18047D01*
X55604Y-17975D01*
X55547Y-17975D01*
X55547Y-13867D01*
X55250Y-13570D01*
X55179Y-13641D01*
X55179Y-13500D01*
X54882Y-13202D01*
X54789Y-13227D01*
X54720Y-13424D01*
X54731Y-13632D01*
X54789Y-13772D01*
X54882Y-13797D01*
X55179Y-13500D01*
X55179Y-13641D01*
X54952Y-13867D01*
X54977Y-13960D01*
X55174Y-14029D01*
X55382Y-14018D01*
X55522Y-13960D01*
X55547Y-13867D01*
X55547Y-17975D01*
X55396Y-17974D01*
X55304Y-18012D01*
X55304Y-15880D01*
X55212Y-15658D01*
X55042Y-15487D01*
X54820Y-15395D01*
X54580Y-15395D01*
X54358Y-15487D01*
X54187Y-15657D01*
X54095Y-15879D01*
X54095Y-16119D01*
X54187Y-16341D01*
X54357Y-16512D01*
X54579Y-16604D01*
X54819Y-16604D01*
X55041Y-16512D01*
X55212Y-16342D01*
X55304Y-16120D01*
X55304Y-15880D01*
X55304Y-18012D01*
X55203Y-18054D01*
X55055Y-18202D01*
X54999Y-18335D01*
X54945Y-18203D01*
X54797Y-18055D01*
X54604Y-17975D01*
X54396Y-17974D01*
X54203Y-18054D01*
X54055Y-18202D01*
X54029Y-18263D01*
X54029Y-13575D01*
X54018Y-13367D01*
X53960Y-13227D01*
X53867Y-13202D01*
X53797Y-13273D01*
X53797Y-13132D01*
X53772Y-13039D01*
X53575Y-12970D01*
X53367Y-12981D01*
X53227Y-13039D01*
X53202Y-13132D01*
X53500Y-13429D01*
X53797Y-13132D01*
X53797Y-13273D01*
X53570Y-13500D01*
X53867Y-13797D01*
X53960Y-13772D01*
X54029Y-13575D01*
X54029Y-18263D01*
X53999Y-18335D01*
X53945Y-18203D01*
X53797Y-18055D01*
X53797Y-18054D01*
X53797Y-13867D01*
X53500Y-13570D01*
X53429Y-13641D01*
X53429Y-13500D01*
X53132Y-13202D01*
X53039Y-13227D01*
X52970Y-13424D01*
X52981Y-13632D01*
X53039Y-13772D01*
X53132Y-13797D01*
X53429Y-13500D01*
X53429Y-13641D01*
X53202Y-13867D01*
X53227Y-13960D01*
X53424Y-14029D01*
X53632Y-14018D01*
X53772Y-13960D01*
X53797Y-13867D01*
X53797Y-18054D01*
X53604Y-17975D01*
X53404Y-17974D01*
X53404Y-15880D01*
X53312Y-15658D01*
X53142Y-15487D01*
X52920Y-15395D01*
X52775Y-15395D01*
X52775Y-13396D01*
X52695Y-13203D01*
X52547Y-13055D01*
X52354Y-12975D01*
X52146Y-12974D01*
X51953Y-13054D01*
X51805Y-13202D01*
X51725Y-13395D01*
X51724Y-13603D01*
X51804Y-13797D01*
X51952Y-13944D01*
X52145Y-14024D01*
X52353Y-14025D01*
X52547Y-13945D01*
X52694Y-13797D01*
X52774Y-13604D01*
X52775Y-13396D01*
X52775Y-15395D01*
X52680Y-15395D01*
X52458Y-15487D01*
X52287Y-15657D01*
X52195Y-15879D01*
X52195Y-16119D01*
X52287Y-16341D01*
X52457Y-16512D01*
X52679Y-16604D01*
X52919Y-16604D01*
X53141Y-16512D01*
X53312Y-16342D01*
X53404Y-16120D01*
X53404Y-15880D01*
X53404Y-17974D01*
X53396Y-17974D01*
X53203Y-18054D01*
X53055Y-18202D01*
X52999Y-18335D01*
X52945Y-18203D01*
X52797Y-18055D01*
X52604Y-17975D01*
X52396Y-17974D01*
X52203Y-18054D01*
X52055Y-18202D01*
X51999Y-18335D01*
X51945Y-18203D01*
X51797Y-18055D01*
X51604Y-17975D01*
X51396Y-17974D01*
X51203Y-18054D01*
X51108Y-18148D01*
X51108Y-15094D01*
X51108Y-13594D01*
X51098Y-13354D01*
X51026Y-13179D01*
X50925Y-13145D01*
X50854Y-13216D01*
X50854Y-13074D01*
X50820Y-12973D01*
X50594Y-12891D01*
X50354Y-12901D01*
X50179Y-12973D01*
X50145Y-13074D01*
X50500Y-13429D01*
X50854Y-13074D01*
X50854Y-13216D01*
X50570Y-13500D01*
X50925Y-13854D01*
X51026Y-13820D01*
X51108Y-13594D01*
X51108Y-15094D01*
X51098Y-14854D01*
X51026Y-14679D01*
X50925Y-14645D01*
X50854Y-14716D01*
X50854Y-14574D01*
X50854Y-13925D01*
X50500Y-13570D01*
X50429Y-13641D01*
X50429Y-13500D01*
X50074Y-13145D01*
X50015Y-13165D01*
X50012Y-13158D01*
X49842Y-12987D01*
X49620Y-12895D01*
X49380Y-12895D01*
X49158Y-12987D01*
X48999Y-13145D01*
X48842Y-12987D01*
X48620Y-12895D01*
X48380Y-12895D01*
X48158Y-12987D01*
X47999Y-13145D01*
X47842Y-12987D01*
X47620Y-12895D01*
X47380Y-12895D01*
X47158Y-12987D01*
X46987Y-13157D01*
X46895Y-13379D01*
X46895Y-13619D01*
X46987Y-13841D01*
X47157Y-14012D01*
X47379Y-14104D01*
X47619Y-14104D01*
X47841Y-14012D01*
X48000Y-13854D01*
X48157Y-14012D01*
X48379Y-14104D01*
X48619Y-14104D01*
X48841Y-14012D01*
X49000Y-13854D01*
X49157Y-14012D01*
X49379Y-14104D01*
X49619Y-14104D01*
X49841Y-14012D01*
X50012Y-13842D01*
X50015Y-13834D01*
X50074Y-13854D01*
X50429Y-13500D01*
X50429Y-13641D01*
X50145Y-13925D01*
X50179Y-14026D01*
X50405Y-14108D01*
X50645Y-14098D01*
X50820Y-14026D01*
X50854Y-13925D01*
X50854Y-14574D01*
X50820Y-14473D01*
X50594Y-14391D01*
X50354Y-14401D01*
X50179Y-14473D01*
X50145Y-14574D01*
X50500Y-14929D01*
X50854Y-14574D01*
X50854Y-14716D01*
X50570Y-15000D01*
X50925Y-15354D01*
X51026Y-15320D01*
X51108Y-15094D01*
X51108Y-18148D01*
X51055Y-18202D01*
X50999Y-18335D01*
X50945Y-18203D01*
X50854Y-18112D01*
X50854Y-15425D01*
X50500Y-15070D01*
X50429Y-15141D01*
X50429Y-15000D01*
X50074Y-14645D01*
X50015Y-14665D01*
X50012Y-14658D01*
X49842Y-14487D01*
X49620Y-14395D01*
X49380Y-14395D01*
X49158Y-14487D01*
X48999Y-14645D01*
X48842Y-14487D01*
X48620Y-14395D01*
X48380Y-14395D01*
X48158Y-14487D01*
X47999Y-14645D01*
X47842Y-14487D01*
X47620Y-14395D01*
X47380Y-14395D01*
X47158Y-14487D01*
X46987Y-14657D01*
X46895Y-14879D01*
X46895Y-15119D01*
X46987Y-15341D01*
X47157Y-15512D01*
X47379Y-15604D01*
X47619Y-15604D01*
X47841Y-15512D01*
X48000Y-15354D01*
X48157Y-15512D01*
X48379Y-15604D01*
X48619Y-15604D01*
X48841Y-15512D01*
X49000Y-15354D01*
X49157Y-15512D01*
X49379Y-15604D01*
X49619Y-15604D01*
X49841Y-15512D01*
X50012Y-15342D01*
X50015Y-15334D01*
X50074Y-15354D01*
X50429Y-15000D01*
X50429Y-15141D01*
X50145Y-15425D01*
X50179Y-15526D01*
X50405Y-15608D01*
X50645Y-15598D01*
X50820Y-15526D01*
X50854Y-15425D01*
X50854Y-18112D01*
X50797Y-18055D01*
X50604Y-17975D01*
X50396Y-17974D01*
X50203Y-18054D01*
X50055Y-18202D01*
X49999Y-18335D01*
X49945Y-18203D01*
X49797Y-18055D01*
X49604Y-17975D01*
X49396Y-17974D01*
X49203Y-18054D01*
X49055Y-18202D01*
X48975Y-18395D01*
X48974Y-18603D01*
X49054Y-18797D01*
X49202Y-18944D01*
X49395Y-19024D01*
X49603Y-19025D01*
X49797Y-18945D01*
X49944Y-18797D01*
X50000Y-18664D01*
X50054Y-18797D01*
X50202Y-18944D01*
X50395Y-19024D01*
X50603Y-19025D01*
X50797Y-18945D01*
X50944Y-18797D01*
X51000Y-18664D01*
X51054Y-18797D01*
X51202Y-18944D01*
X51395Y-19024D01*
X51603Y-19025D01*
X51797Y-18945D01*
X51944Y-18797D01*
X52000Y-18664D01*
X52054Y-18797D01*
X52202Y-18944D01*
X52395Y-19024D01*
X52603Y-19025D01*
X52797Y-18945D01*
X52944Y-18797D01*
X53000Y-18664D01*
X53054Y-18797D01*
X53202Y-18944D01*
X53395Y-19024D01*
X53603Y-19025D01*
X53797Y-18945D01*
X53944Y-18797D01*
X54000Y-18664D01*
X54054Y-18797D01*
X54202Y-18944D01*
X54395Y-19024D01*
X54603Y-19025D01*
X54797Y-18945D01*
X54944Y-18797D01*
X55000Y-18664D01*
X55054Y-18797D01*
X55202Y-18944D01*
X55395Y-19024D01*
X55603Y-19025D01*
X55797Y-18945D01*
X55944Y-18797D01*
X56000Y-18664D01*
X56054Y-18797D01*
X56202Y-18944D01*
X56395Y-19024D01*
X56603Y-19025D01*
X56797Y-18945D01*
X56944Y-18797D01*
X57000Y-18664D01*
X57054Y-18797D01*
X57202Y-18944D01*
X57395Y-19024D01*
X57603Y-19025D01*
X57797Y-18945D01*
X57944Y-18797D01*
X58000Y-18664D01*
X58054Y-18797D01*
X58202Y-18944D01*
X58395Y-19024D01*
X58603Y-19025D01*
X58797Y-18945D01*
X58944Y-18797D01*
X59000Y-18664D01*
X59054Y-18797D01*
X59202Y-18944D01*
X59395Y-19024D01*
X59603Y-19025D01*
X59797Y-18945D01*
X59944Y-18797D01*
X60000Y-18664D01*
X60054Y-18797D01*
X60202Y-18944D01*
X60395Y-19024D01*
X60603Y-19025D01*
X60797Y-18945D01*
X60944Y-18797D01*
X61000Y-18664D01*
X61054Y-18797D01*
X61202Y-18944D01*
X61395Y-19024D01*
X61603Y-19025D01*
X61797Y-18945D01*
X61944Y-18797D01*
X62000Y-18664D01*
X62054Y-18797D01*
X62202Y-18944D01*
X62395Y-19024D01*
X62603Y-19025D01*
X62797Y-18945D01*
X62944Y-18797D01*
X63024Y-18604D01*
X63025Y-18396D01*
X63025Y-21396D01*
X62945Y-21203D01*
X62797Y-21055D01*
X62604Y-20975D01*
X62396Y-20974D01*
X62203Y-21054D01*
X62055Y-21202D01*
X61999Y-21335D01*
X61945Y-21203D01*
X61797Y-21055D01*
X61604Y-20975D01*
X61396Y-20974D01*
X61203Y-21054D01*
X61055Y-21202D01*
X60999Y-21335D01*
X60945Y-21203D01*
X60797Y-21055D01*
X60604Y-20975D01*
X60396Y-20974D01*
X60203Y-21054D01*
X60055Y-21202D01*
X59999Y-21335D01*
X59945Y-21203D01*
X59797Y-21055D01*
X59604Y-20975D01*
X59396Y-20974D01*
X59203Y-21054D01*
X59055Y-21202D01*
X58999Y-21335D01*
X58945Y-21203D01*
X58797Y-21055D01*
X58604Y-20975D01*
X58396Y-20974D01*
X58203Y-21054D01*
X58055Y-21202D01*
X57999Y-21335D01*
X57945Y-21203D01*
X57797Y-21055D01*
X57604Y-20975D01*
X57396Y-20974D01*
X57203Y-21054D01*
X57055Y-21202D01*
X57002Y-21328D01*
X56960Y-21227D01*
X56867Y-21202D01*
X56797Y-21273D01*
X56797Y-21132D01*
X56772Y-21039D01*
X56575Y-20970D01*
X56367Y-20981D01*
X56227Y-21039D01*
X56202Y-21132D01*
X56500Y-21429D01*
X56797Y-21132D01*
X56797Y-21273D01*
X56570Y-21500D01*
X56867Y-21797D01*
X56960Y-21772D01*
X56999Y-21662D01*
X57054Y-21797D01*
X57202Y-21944D01*
X57395Y-22024D01*
X57603Y-22025D01*
X57797Y-21945D01*
X57944Y-21797D01*
X58000Y-21664D01*
X58054Y-21797D01*
X58202Y-21944D01*
X58395Y-22024D01*
X58603Y-22025D01*
X58797Y-21945D01*
X58944Y-21797D01*
X59000Y-21664D01*
X59054Y-21797D01*
X59202Y-21944D01*
X59395Y-22024D01*
X59603Y-22025D01*
X59797Y-21945D01*
X59944Y-21797D01*
X60000Y-21664D01*
X60054Y-21797D01*
X60202Y-21944D01*
X60395Y-22024D01*
X60603Y-22025D01*
X60797Y-21945D01*
X60944Y-21797D01*
X61000Y-21664D01*
X61054Y-21797D01*
X61202Y-21944D01*
X61395Y-22024D01*
X61603Y-22025D01*
X61797Y-21945D01*
X61944Y-21797D01*
X62000Y-21664D01*
X62054Y-21797D01*
X62202Y-21944D01*
X62395Y-22024D01*
X62603Y-22025D01*
X62797Y-21945D01*
X62944Y-21797D01*
X63024Y-21604D01*
X63025Y-21396D01*
X63025Y-26230D01*
X61670Y-26230D01*
X61683Y-26225D01*
X61830Y-26077D01*
X61910Y-25884D01*
X61911Y-25676D01*
X61911Y-23116D01*
X61831Y-22923D01*
X61683Y-22775D01*
X61490Y-22695D01*
X61282Y-22694D01*
X61089Y-22774D01*
X60941Y-22922D01*
X60861Y-23115D01*
X60860Y-23323D01*
X60940Y-23517D01*
X61088Y-23664D01*
X61281Y-23744D01*
X61489Y-23745D01*
X61683Y-23665D01*
X61830Y-23517D01*
X61910Y-23324D01*
X61911Y-23116D01*
X61911Y-25676D01*
X61831Y-25483D01*
X61683Y-25335D01*
X61490Y-25255D01*
X61282Y-25254D01*
X61089Y-25334D01*
X60941Y-25482D01*
X60861Y-25675D01*
X60860Y-25883D01*
X60940Y-26077D01*
X61088Y-26224D01*
X61101Y-26230D01*
X60143Y-26230D01*
X60143Y-25855D01*
X60143Y-23295D01*
X60132Y-23087D01*
X60074Y-22947D01*
X59981Y-22922D01*
X59911Y-22993D01*
X59911Y-22852D01*
X59886Y-22759D01*
X59689Y-22690D01*
X59481Y-22701D01*
X59341Y-22759D01*
X59316Y-22852D01*
X59614Y-23149D01*
X59911Y-22852D01*
X59911Y-22993D01*
X59684Y-23220D01*
X59981Y-23517D01*
X60074Y-23492D01*
X60143Y-23295D01*
X60143Y-25855D01*
X60132Y-25647D01*
X60074Y-25507D01*
X59981Y-25482D01*
X59911Y-25553D01*
X59911Y-25412D01*
X59911Y-23587D01*
X59614Y-23290D01*
X59543Y-23361D01*
X59543Y-23220D01*
X59246Y-22922D01*
X59153Y-22947D01*
X59084Y-23144D01*
X59095Y-23352D01*
X59153Y-23492D01*
X59246Y-23517D01*
X59543Y-23220D01*
X59543Y-23361D01*
X59316Y-23587D01*
X59341Y-23680D01*
X59538Y-23749D01*
X59746Y-23738D01*
X59886Y-23680D01*
X59911Y-23587D01*
X59911Y-25412D01*
X59886Y-25319D01*
X59689Y-25250D01*
X59481Y-25261D01*
X59341Y-25319D01*
X59316Y-25412D01*
X59614Y-25709D01*
X59911Y-25412D01*
X59911Y-25553D01*
X59684Y-25780D01*
X59981Y-26077D01*
X60074Y-26052D01*
X60143Y-25855D01*
X60143Y-26230D01*
X59889Y-26230D01*
X59911Y-26147D01*
X59614Y-25850D01*
X59543Y-25921D01*
X59543Y-25780D01*
X59246Y-25482D01*
X59153Y-25507D01*
X59084Y-25704D01*
X59095Y-25912D01*
X59153Y-26052D01*
X59246Y-26077D01*
X59543Y-25780D01*
X59543Y-25921D01*
X59316Y-26147D01*
X59338Y-26230D01*
X57670Y-26230D01*
X57683Y-26225D01*
X57830Y-26077D01*
X57910Y-25884D01*
X57911Y-25676D01*
X57911Y-23116D01*
X57831Y-22923D01*
X57683Y-22775D01*
X57490Y-22695D01*
X57282Y-22694D01*
X57089Y-22774D01*
X56941Y-22922D01*
X56861Y-23115D01*
X56860Y-23323D01*
X56940Y-23517D01*
X57088Y-23664D01*
X57281Y-23744D01*
X57489Y-23745D01*
X57683Y-23665D01*
X57830Y-23517D01*
X57910Y-23324D01*
X57911Y-23116D01*
X57911Y-25676D01*
X57831Y-25483D01*
X57683Y-25335D01*
X57490Y-25255D01*
X57282Y-25254D01*
X57089Y-25334D01*
X56941Y-25482D01*
X56861Y-25675D01*
X56860Y-25883D01*
X56940Y-26077D01*
X57088Y-26224D01*
X57101Y-26230D01*
X56797Y-26230D01*
X56797Y-21867D01*
X56500Y-21570D01*
X56429Y-21641D01*
X56429Y-21500D01*
X56132Y-21202D01*
X56039Y-21227D01*
X56000Y-21337D01*
X55945Y-21203D01*
X55797Y-21055D01*
X55604Y-20975D01*
X55396Y-20974D01*
X55203Y-21054D01*
X55055Y-21202D01*
X54999Y-21335D01*
X54945Y-21203D01*
X54797Y-21055D01*
X54604Y-20975D01*
X54396Y-20974D01*
X54203Y-21054D01*
X54055Y-21202D01*
X53999Y-21335D01*
X53945Y-21203D01*
X53797Y-21055D01*
X53604Y-20975D01*
X53396Y-20974D01*
X53203Y-21054D01*
X53055Y-21202D01*
X52999Y-21335D01*
X52945Y-21203D01*
X52797Y-21055D01*
X52604Y-20975D01*
X52396Y-20974D01*
X52203Y-21054D01*
X52055Y-21202D01*
X51999Y-21335D01*
X51945Y-21203D01*
X51797Y-21055D01*
X51604Y-20975D01*
X51396Y-20974D01*
X51203Y-21054D01*
X51055Y-21202D01*
X50999Y-21335D01*
X50945Y-21203D01*
X50797Y-21055D01*
X50604Y-20975D01*
X50396Y-20974D01*
X50203Y-21054D01*
X50055Y-21202D01*
X50025Y-21274D01*
X50025Y-21175D01*
X49987Y-21083D01*
X49916Y-21013D01*
X49824Y-20975D01*
X49725Y-20974D01*
X49175Y-20974D01*
X49083Y-21012D01*
X49013Y-21083D01*
X48975Y-21175D01*
X48974Y-21274D01*
X48974Y-21824D01*
X49012Y-21916D01*
X49083Y-21986D01*
X49175Y-22024D01*
X49274Y-22025D01*
X49824Y-22025D01*
X49916Y-21987D01*
X49986Y-21916D01*
X50024Y-21824D01*
X50025Y-21725D01*
X50025Y-21725D01*
X50054Y-21797D01*
X50202Y-21944D01*
X50395Y-22024D01*
X50603Y-22025D01*
X50797Y-21945D01*
X50944Y-21797D01*
X51000Y-21664D01*
X51054Y-21797D01*
X51202Y-21944D01*
X51395Y-22024D01*
X51603Y-22025D01*
X51797Y-21945D01*
X51944Y-21797D01*
X52000Y-21664D01*
X52054Y-21797D01*
X52202Y-21944D01*
X52395Y-22024D01*
X52603Y-22025D01*
X52797Y-21945D01*
X52944Y-21797D01*
X53000Y-21664D01*
X53054Y-21797D01*
X53202Y-21944D01*
X53395Y-22024D01*
X53603Y-22025D01*
X53797Y-21945D01*
X53944Y-21797D01*
X54000Y-21664D01*
X54054Y-21797D01*
X54202Y-21944D01*
X54395Y-22024D01*
X54603Y-22025D01*
X54797Y-21945D01*
X54944Y-21797D01*
X55000Y-21664D01*
X55054Y-21797D01*
X55202Y-21944D01*
X55395Y-22024D01*
X55603Y-22025D01*
X55797Y-21945D01*
X55944Y-21797D01*
X55997Y-21671D01*
X56039Y-21772D01*
X56132Y-21797D01*
X56429Y-21500D01*
X56429Y-21641D01*
X56202Y-21867D01*
X56227Y-21960D01*
X56424Y-22029D01*
X56632Y-22018D01*
X56772Y-21960D01*
X56797Y-21867D01*
X56797Y-26230D01*
X56143Y-26230D01*
X56143Y-25855D01*
X56143Y-23295D01*
X56132Y-23087D01*
X56074Y-22947D01*
X55981Y-22922D01*
X55911Y-22993D01*
X55911Y-22852D01*
X55886Y-22759D01*
X55689Y-22690D01*
X55481Y-22701D01*
X55341Y-22759D01*
X55316Y-22852D01*
X55614Y-23149D01*
X55911Y-22852D01*
X55911Y-22993D01*
X55684Y-23220D01*
X55981Y-23517D01*
X56074Y-23492D01*
X56143Y-23295D01*
X56143Y-25855D01*
X56132Y-25647D01*
X56074Y-25507D01*
X55981Y-25482D01*
X55911Y-25553D01*
X55911Y-25412D01*
X55911Y-23587D01*
X55614Y-23290D01*
X55543Y-23361D01*
X55543Y-23220D01*
X55246Y-22922D01*
X55153Y-22947D01*
X55084Y-23144D01*
X55095Y-23352D01*
X55153Y-23492D01*
X55246Y-23517D01*
X55543Y-23220D01*
X55543Y-23361D01*
X55316Y-23587D01*
X55341Y-23680D01*
X55538Y-23749D01*
X55746Y-23738D01*
X55886Y-23680D01*
X55911Y-23587D01*
X55911Y-25412D01*
X55886Y-25319D01*
X55689Y-25250D01*
X55481Y-25261D01*
X55341Y-25319D01*
X55316Y-25412D01*
X55614Y-25709D01*
X55911Y-25412D01*
X55911Y-25553D01*
X55684Y-25780D01*
X55981Y-26077D01*
X56074Y-26052D01*
X56143Y-25855D01*
X56143Y-26230D01*
X55889Y-26230D01*
X55911Y-26147D01*
X55614Y-25850D01*
X55543Y-25921D01*
X55543Y-25780D01*
X55246Y-25482D01*
X55153Y-25507D01*
X55084Y-25704D01*
X55095Y-25912D01*
X55153Y-26052D01*
X55246Y-26077D01*
X55543Y-25780D01*
X55543Y-25921D01*
X55316Y-26147D01*
X55338Y-26230D01*
X53775Y-26230D01*
X53775Y-25396D01*
X53695Y-25203D01*
X53547Y-25055D01*
X53354Y-24975D01*
X53146Y-24974D01*
X53025Y-25024D01*
X53025Y-23725D01*
X53025Y-23175D01*
X52987Y-23083D01*
X52916Y-23013D01*
X52824Y-22975D01*
X52725Y-22974D01*
X52175Y-22974D01*
X52083Y-23012D01*
X52013Y-23083D01*
X51975Y-23175D01*
X51974Y-23274D01*
X51974Y-23274D01*
X51945Y-23203D01*
X51797Y-23055D01*
X51604Y-22975D01*
X51396Y-22974D01*
X51203Y-23054D01*
X51055Y-23202D01*
X50999Y-23335D01*
X50945Y-23203D01*
X50797Y-23055D01*
X50604Y-22975D01*
X50396Y-22974D01*
X50203Y-23054D01*
X50055Y-23202D01*
X49975Y-23395D01*
X49974Y-23603D01*
X50054Y-23797D01*
X50202Y-23944D01*
X50395Y-24024D01*
X50603Y-24025D01*
X50797Y-23945D01*
X50944Y-23797D01*
X51000Y-23664D01*
X51054Y-23797D01*
X51202Y-23944D01*
X51395Y-24024D01*
X51603Y-24025D01*
X51797Y-23945D01*
X51944Y-23797D01*
X51974Y-23725D01*
X51974Y-23824D01*
X52012Y-23916D01*
X52083Y-23986D01*
X52175Y-24024D01*
X52274Y-24025D01*
X52824Y-24025D01*
X52916Y-23987D01*
X52986Y-23916D01*
X53024Y-23824D01*
X53025Y-23725D01*
X53025Y-25024D01*
X52953Y-25054D01*
X52805Y-25202D01*
X52725Y-25395D01*
X52724Y-25603D01*
X52804Y-25797D01*
X52952Y-25944D01*
X53145Y-26024D01*
X53353Y-26025D01*
X53547Y-25945D01*
X53694Y-25797D01*
X53774Y-25604D01*
X53775Y-25396D01*
X53775Y-26230D01*
X50275Y-26230D01*
X50275Y-25396D01*
X50195Y-25203D01*
X50047Y-25055D01*
X49854Y-24975D01*
X49646Y-24974D01*
X49453Y-25054D01*
X49305Y-25202D01*
X49225Y-25395D01*
X49224Y-25603D01*
X49304Y-25797D01*
X49452Y-25944D01*
X49645Y-26024D01*
X49853Y-26025D01*
X50047Y-25945D01*
X50194Y-25797D01*
X50274Y-25604D01*
X50275Y-25396D01*
X50275Y-26230D01*
X49025Y-26230D01*
X49025Y-24646D01*
X49025Y-23396D01*
X48945Y-23203D01*
X48858Y-23116D01*
X48858Y-17094D01*
X48848Y-16854D01*
X48776Y-16679D01*
X48675Y-16645D01*
X48604Y-16716D01*
X48604Y-16574D01*
X48570Y-16473D01*
X48344Y-16391D01*
X48104Y-16401D01*
X47929Y-16473D01*
X47895Y-16574D01*
X48250Y-16929D01*
X48604Y-16574D01*
X48604Y-16716D01*
X48320Y-17000D01*
X48675Y-17354D01*
X48776Y-17320D01*
X48858Y-17094D01*
X48858Y-23116D01*
X48854Y-23111D01*
X48854Y-21880D01*
X48762Y-21658D01*
X48604Y-21499D01*
X48762Y-21342D01*
X48854Y-21120D01*
X48854Y-20880D01*
X48762Y-20658D01*
X48604Y-20499D01*
X48762Y-20342D01*
X48854Y-20120D01*
X48854Y-19880D01*
X48762Y-19658D01*
X48604Y-19499D01*
X48762Y-19342D01*
X48854Y-19120D01*
X48854Y-18880D01*
X48762Y-18658D01*
X48604Y-18499D01*
X48762Y-18342D01*
X48854Y-18120D01*
X48854Y-17880D01*
X48762Y-17658D01*
X48592Y-17487D01*
X48584Y-17484D01*
X48604Y-17425D01*
X48250Y-17070D01*
X48179Y-17141D01*
X48179Y-17000D01*
X47824Y-16645D01*
X47723Y-16679D01*
X47641Y-16905D01*
X47651Y-17145D01*
X47723Y-17320D01*
X47824Y-17354D01*
X48179Y-17000D01*
X48179Y-17141D01*
X47895Y-17425D01*
X47915Y-17484D01*
X47908Y-17487D01*
X47737Y-17657D01*
X47645Y-17879D01*
X47645Y-18119D01*
X47737Y-18341D01*
X47895Y-18500D01*
X47737Y-18657D01*
X47645Y-18879D01*
X47645Y-19119D01*
X47737Y-19341D01*
X47895Y-19500D01*
X47737Y-19657D01*
X47645Y-19879D01*
X47645Y-20119D01*
X47737Y-20341D01*
X47895Y-20500D01*
X47737Y-20657D01*
X47645Y-20879D01*
X47645Y-21119D01*
X47737Y-21341D01*
X47895Y-21500D01*
X47737Y-21657D01*
X47645Y-21879D01*
X47645Y-22119D01*
X47737Y-22341D01*
X47907Y-22512D01*
X48129Y-22604D01*
X48369Y-22604D01*
X48591Y-22512D01*
X48762Y-22342D01*
X48854Y-22120D01*
X48854Y-21880D01*
X48854Y-23111D01*
X48797Y-23055D01*
X48604Y-22975D01*
X48396Y-22974D01*
X48203Y-23054D01*
X48055Y-23202D01*
X47975Y-23395D01*
X47974Y-23603D01*
X48054Y-23797D01*
X48202Y-23944D01*
X48395Y-24024D01*
X48603Y-24025D01*
X48797Y-23945D01*
X48944Y-23797D01*
X49024Y-23604D01*
X49025Y-23396D01*
X49025Y-24646D01*
X48945Y-24453D01*
X48797Y-24305D01*
X48604Y-24225D01*
X48396Y-24224D01*
X48203Y-24304D01*
X48055Y-24452D01*
X47975Y-24645D01*
X47974Y-24853D01*
X48054Y-25047D01*
X48202Y-25194D01*
X48395Y-25274D01*
X48603Y-25275D01*
X48797Y-25195D01*
X48944Y-25047D01*
X49024Y-24854D01*
X49025Y-24646D01*
X49025Y-26230D01*
X46550Y-26230D01*
X46550Y-12550D01*
X64499Y-12550D01*
X64356Y-12609D01*
X64060Y-12904D01*
X63900Y-13290D01*
X63899Y-13707D01*
X64059Y-14094D01*
X64354Y-14389D01*
X64740Y-14549D01*
X65157Y-14550D01*
X65544Y-14390D01*
X65839Y-14095D01*
X65999Y-13709D01*
X66000Y-13292D01*
X65840Y-12906D01*
X65545Y-12610D01*
X65400Y-12550D01*
X67230Y-12550D01*
X67230Y-17230D01*
X67154Y-17206D01*
X67083Y-17277D01*
X67083Y-17135D01*
X67052Y-17038D01*
X66837Y-16960D01*
X66609Y-16970D01*
X66447Y-17038D01*
X66416Y-17135D01*
X66750Y-17469D01*
X67083Y-17135D01*
X67083Y-17277D01*
X66820Y-17540D01*
X67154Y-17873D01*
X67230Y-17849D01*
X67230Y-21127D01*
X67083Y-20980D01*
X67083Y-17944D01*
X66750Y-17610D01*
X66679Y-17681D01*
X66679Y-17540D01*
X66345Y-17206D01*
X66248Y-17237D01*
X66170Y-17452D01*
X66180Y-17680D01*
X66248Y-17842D01*
X66345Y-17873D01*
X66679Y-17540D01*
X66679Y-17681D01*
X66416Y-17944D01*
X66447Y-18041D01*
X66662Y-18119D01*
X66890Y-18109D01*
X67052Y-18041D01*
X67083Y-17944D01*
X67083Y-20980D01*
X67076Y-20972D01*
X66864Y-20885D01*
X66636Y-20884D01*
X66424Y-20972D01*
X66262Y-21133D01*
X66175Y-21345D01*
X66174Y-21573D01*
X66262Y-21785D01*
X66423Y-21947D01*
X66635Y-22034D01*
X66863Y-22035D01*
X67075Y-21947D01*
X67230Y-21792D01*
X67230Y-26230D01*
X67230Y-26230D01*
G37*
G54D16*
X67230Y-26230D02*
X65670Y-26230D01*
X65683Y-26225D01*
X65830Y-26077D01*
X65910Y-25884D01*
X65911Y-25676D01*
X65911Y-23116D01*
X65831Y-22923D01*
X65683Y-22775D01*
X65490Y-22695D01*
X65282Y-22694D01*
X65089Y-22774D01*
X64941Y-22922D01*
X64861Y-23115D01*
X64860Y-23323D01*
X64940Y-23517D01*
X65088Y-23664D01*
X65281Y-23744D01*
X65489Y-23745D01*
X65683Y-23665D01*
X65830Y-23517D01*
X65910Y-23324D01*
X65911Y-23116D01*
X65911Y-25676D01*
X65831Y-25483D01*
X65683Y-25335D01*
X65490Y-25255D01*
X65282Y-25254D01*
X65089Y-25334D01*
X64941Y-25482D01*
X64861Y-25675D01*
X64860Y-25883D01*
X64940Y-26077D01*
X65088Y-26224D01*
X65101Y-26230D01*
X64143Y-26230D01*
X64143Y-25855D01*
X64143Y-23295D01*
X64132Y-23087D01*
X64074Y-22947D01*
X63981Y-22922D01*
X63911Y-22993D01*
X63911Y-22852D01*
X63886Y-22759D01*
X63689Y-22690D01*
X63525Y-22699D01*
X63525Y-16646D01*
X63445Y-16453D01*
X63297Y-16305D01*
X63164Y-16249D01*
X63297Y-16195D01*
X63444Y-16047D01*
X63524Y-15854D01*
X63525Y-15646D01*
X63445Y-15453D01*
X63297Y-15305D01*
X63164Y-15249D01*
X63297Y-15195D01*
X63444Y-15047D01*
X63524Y-14854D01*
X63525Y-14646D01*
X63445Y-14453D01*
X63297Y-14305D01*
X63164Y-14249D01*
X63297Y-14195D01*
X63444Y-14047D01*
X63524Y-13854D01*
X63525Y-13646D01*
X63445Y-13453D01*
X63297Y-13305D01*
X63104Y-13225D01*
X62896Y-13224D01*
X62703Y-13304D01*
X62555Y-13452D01*
X62475Y-13645D01*
X62474Y-13853D01*
X62554Y-14047D01*
X62702Y-14194D01*
X62835Y-14250D01*
X62703Y-14304D01*
X62555Y-14452D01*
X62475Y-14645D01*
X62474Y-14853D01*
X62554Y-15047D01*
X62702Y-15194D01*
X62835Y-15250D01*
X62703Y-15304D01*
X62555Y-15452D01*
X62475Y-15645D01*
X62474Y-15853D01*
X62554Y-16047D01*
X62702Y-16194D01*
X62835Y-16250D01*
X62703Y-16304D01*
X62555Y-16452D01*
X62475Y-16645D01*
X62474Y-16853D01*
X62554Y-17047D01*
X62702Y-17194D01*
X62895Y-17274D01*
X63103Y-17275D01*
X63297Y-17195D01*
X63444Y-17047D01*
X63524Y-16854D01*
X63525Y-16646D01*
X63525Y-22699D01*
X63481Y-22701D01*
X63341Y-22759D01*
X63316Y-22852D01*
X63614Y-23149D01*
X63911Y-22852D01*
X63911Y-22993D01*
X63684Y-23220D01*
X63981Y-23517D01*
X64074Y-23492D01*
X64143Y-23295D01*
X64143Y-25855D01*
X64132Y-25647D01*
X64074Y-25507D01*
X63981Y-25482D01*
X63911Y-25553D01*
X63911Y-25412D01*
X63911Y-23587D01*
X63614Y-23290D01*
X63543Y-23361D01*
X63543Y-23220D01*
X63246Y-22922D01*
X63153Y-22947D01*
X63084Y-23144D01*
X63095Y-23352D01*
X63153Y-23492D01*
X63246Y-23517D01*
X63543Y-23220D01*
X63543Y-23361D01*
X63316Y-23587D01*
X63341Y-23680D01*
X63538Y-23749D01*
X63746Y-23738D01*
X63886Y-23680D01*
X63911Y-23587D01*
X63911Y-25412D01*
X63886Y-25319D01*
X63689Y-25250D01*
X63481Y-25261D01*
X63341Y-25319D01*
X63316Y-25412D01*
X63614Y-25709D01*
X63911Y-25412D01*
X63911Y-25553D01*
X63684Y-25780D01*
X63981Y-26077D01*
X64074Y-26052D01*
X64143Y-25855D01*
X64143Y-26230D01*
X63889Y-26230D01*
X63911Y-26147D01*
X63614Y-25850D01*
X63543Y-25921D01*
X63543Y-25780D01*
X63246Y-25482D01*
X63153Y-25507D01*
X63084Y-25704D01*
X63095Y-25912D01*
X63153Y-26052D01*
X63246Y-26077D01*
X63543Y-25780D01*
X63543Y-25921D01*
X63316Y-26147D01*
X63338Y-26230D01*
X63025Y-26230D01*
X63025Y-21396D01*
X63025Y-18396D01*
X62945Y-18203D01*
X62797Y-18055D01*
X62604Y-17975D01*
X62396Y-17974D01*
X62203Y-18054D01*
X62055Y-18202D01*
X61999Y-18335D01*
X61945Y-18203D01*
X61797Y-18055D01*
X61604Y-17975D01*
X61525Y-17975D01*
X61525Y-16896D01*
X61525Y-13396D01*
X61445Y-13203D01*
X61297Y-13055D01*
X61104Y-12975D01*
X60896Y-12974D01*
X60703Y-13054D01*
X60555Y-13202D01*
X60475Y-13395D01*
X60474Y-13603D01*
X60554Y-13797D01*
X60702Y-13944D01*
X60895Y-14024D01*
X61103Y-14025D01*
X61297Y-13945D01*
X61444Y-13797D01*
X61524Y-13604D01*
X61525Y-13396D01*
X61525Y-16896D01*
X61445Y-16703D01*
X61297Y-16555D01*
X61104Y-16475D01*
X60896Y-16474D01*
X60703Y-16554D01*
X60555Y-16702D01*
X60475Y-16895D01*
X60474Y-17103D01*
X60554Y-17297D01*
X60702Y-17444D01*
X60895Y-17524D01*
X61103Y-17525D01*
X61297Y-17445D01*
X61444Y-17297D01*
X61524Y-17104D01*
X61525Y-16896D01*
X61525Y-17975D01*
X61396Y-17974D01*
X61203Y-18054D01*
X61055Y-18202D01*
X60999Y-18335D01*
X60945Y-18203D01*
X60797Y-18055D01*
X60604Y-17975D01*
X60396Y-17974D01*
X60203Y-18054D01*
X60055Y-18202D01*
X60025Y-18274D01*
X60025Y-16896D01*
X60025Y-13396D01*
X59945Y-13203D01*
X59797Y-13055D01*
X59604Y-12975D01*
X59396Y-12974D01*
X59203Y-13054D01*
X59055Y-13202D01*
X58975Y-13395D01*
X58974Y-13603D01*
X59054Y-13797D01*
X59202Y-13944D01*
X59395Y-14024D01*
X59603Y-14025D01*
X59797Y-13945D01*
X59944Y-13797D01*
X60024Y-13604D01*
X60025Y-13396D01*
X60025Y-16896D01*
X59945Y-16703D01*
X59797Y-16555D01*
X59604Y-16475D01*
X59396Y-16474D01*
X59203Y-16554D01*
X59055Y-16702D01*
X58975Y-16895D01*
X58974Y-17103D01*
X59054Y-17297D01*
X59202Y-17444D01*
X59395Y-17524D01*
X59603Y-17525D01*
X59797Y-17445D01*
X59944Y-17297D01*
X60024Y-17104D01*
X60025Y-16896D01*
X60025Y-18274D01*
X59999Y-18335D01*
X59945Y-18203D01*
X59797Y-18055D01*
X59604Y-17975D01*
X59396Y-17974D01*
X59203Y-18054D01*
X59055Y-18202D01*
X58999Y-18335D01*
X58945Y-18203D01*
X58797Y-18055D01*
X58604Y-17975D01*
X58525Y-17975D01*
X58525Y-16896D01*
X58525Y-13396D01*
X58445Y-13203D01*
X58297Y-13055D01*
X58104Y-12975D01*
X57896Y-12974D01*
X57703Y-13054D01*
X57555Y-13202D01*
X57475Y-13395D01*
X57474Y-13603D01*
X57554Y-13797D01*
X57702Y-13944D01*
X57895Y-14024D01*
X58103Y-14025D01*
X58297Y-13945D01*
X58444Y-13797D01*
X58524Y-13604D01*
X58525Y-13396D01*
X58525Y-16896D01*
X58445Y-16703D01*
X58297Y-16555D01*
X58104Y-16475D01*
X57896Y-16474D01*
X57703Y-16554D01*
X57555Y-16702D01*
X57475Y-16895D01*
X57474Y-17103D01*
X57554Y-17297D01*
X57702Y-17444D01*
X57895Y-17524D01*
X58103Y-17525D01*
X58297Y-17445D01*
X58444Y-17297D01*
X58524Y-17104D01*
X58525Y-16896D01*
X58525Y-17975D01*
X58396Y-17974D01*
X58203Y-18054D01*
X58055Y-18202D01*
X57999Y-18335D01*
X57945Y-18203D01*
X57797Y-18055D01*
X57604Y-17975D01*
X57396Y-17974D01*
X57203Y-18054D01*
X57055Y-18202D01*
X57025Y-18274D01*
X57025Y-13396D01*
X56945Y-13203D01*
X56797Y-13055D01*
X56604Y-12975D01*
X56396Y-12974D01*
X56203Y-13054D01*
X56055Y-13202D01*
X55975Y-13395D01*
X55974Y-13603D01*
X56054Y-13797D01*
X56202Y-13944D01*
X56395Y-14024D01*
X56603Y-14025D01*
X56797Y-13945D01*
X56944Y-13797D01*
X57024Y-13604D01*
X57025Y-13396D01*
X57025Y-18274D01*
X56999Y-18335D01*
X56945Y-18203D01*
X56797Y-18055D01*
X56604Y-17975D01*
X56396Y-17974D01*
X56203Y-18054D01*
X56055Y-18202D01*
X55999Y-18335D01*
X55945Y-18203D01*
X55797Y-18055D01*
X55779Y-18047D01*
X55779Y-13575D01*
X55768Y-13367D01*
X55710Y-13227D01*
X55617Y-13202D01*
X55547Y-13273D01*
X55547Y-13132D01*
X55522Y-13039D01*
X55325Y-12970D01*
X55117Y-12981D01*
X54977Y-13039D01*
X54952Y-13132D01*
X55250Y-13429D01*
X55547Y-13132D01*
X55547Y-13273D01*
X55320Y-13500D01*
X55617Y-13797D01*
X55710Y-13772D01*
X55779Y-13575D01*
X55779Y-18047D01*
X55604Y-17975D01*
X55547Y-17975D01*
X55547Y-13867D01*
X55250Y-13570D01*
X55179Y-13641D01*
X55179Y-13500D01*
X54882Y-13202D01*
X54789Y-13227D01*
X54720Y-13424D01*
X54731Y-13632D01*
X54789Y-13772D01*
X54882Y-13797D01*
X55179Y-13500D01*
X55179Y-13641D01*
X54952Y-13867D01*
X54977Y-13960D01*
X55174Y-14029D01*
X55382Y-14018D01*
X55522Y-13960D01*
X55547Y-13867D01*
X55547Y-17975D01*
X55396Y-17974D01*
X55304Y-18012D01*
X55304Y-15880D01*
X55212Y-15658D01*
X55042Y-15487D01*
X54820Y-15395D01*
X54580Y-15395D01*
X54358Y-15487D01*
X54187Y-15657D01*
X54095Y-15879D01*
X54095Y-16119D01*
X54187Y-16341D01*
X54357Y-16512D01*
X54579Y-16604D01*
X54819Y-16604D01*
X55041Y-16512D01*
X55212Y-16342D01*
X55304Y-16120D01*
X55304Y-15880D01*
X55304Y-18012D01*
X55203Y-18054D01*
X55055Y-18202D01*
X54999Y-18335D01*
X54945Y-18203D01*
X54797Y-18055D01*
X54604Y-17975D01*
X54396Y-17974D01*
X54203Y-18054D01*
X54055Y-18202D01*
X54029Y-18263D01*
X54029Y-13575D01*
X54018Y-13367D01*
X53960Y-13227D01*
X53867Y-13202D01*
X53797Y-13273D01*
X53797Y-13132D01*
X53772Y-13039D01*
X53575Y-12970D01*
X53367Y-12981D01*
X53227Y-13039D01*
X53202Y-13132D01*
X53500Y-13429D01*
X53797Y-13132D01*
X53797Y-13273D01*
X53570Y-13500D01*
X53867Y-13797D01*
X53960Y-13772D01*
X54029Y-13575D01*
X54029Y-18263D01*
X53999Y-18335D01*
X53945Y-18203D01*
X53797Y-18055D01*
X53797Y-18054D01*
X53797Y-13867D01*
X53500Y-13570D01*
X53429Y-13641D01*
X53429Y-13500D01*
X53132Y-13202D01*
X53039Y-13227D01*
X52970Y-13424D01*
X52981Y-13632D01*
X53039Y-13772D01*
X53132Y-13797D01*
X53429Y-13500D01*
X53429Y-13641D01*
X53202Y-13867D01*
X53227Y-13960D01*
X53424Y-14029D01*
X53632Y-14018D01*
X53772Y-13960D01*
X53797Y-13867D01*
X53797Y-18054D01*
X53604Y-17975D01*
X53404Y-17974D01*
X53404Y-15880D01*
X53312Y-15658D01*
X53142Y-15487D01*
X52920Y-15395D01*
X52775Y-15395D01*
X52775Y-13396D01*
X52695Y-13203D01*
X52547Y-13055D01*
X52354Y-12975D01*
X52146Y-12974D01*
X51953Y-13054D01*
X51805Y-13202D01*
X51725Y-13395D01*
X51724Y-13603D01*
X51804Y-13797D01*
X51952Y-13944D01*
X52145Y-14024D01*
X52353Y-14025D01*
X52547Y-13945D01*
X52694Y-13797D01*
X52774Y-13604D01*
X52775Y-13396D01*
X52775Y-15395D01*
X52680Y-15395D01*
X52458Y-15487D01*
X52287Y-15657D01*
X52195Y-15879D01*
X52195Y-16119D01*
X52287Y-16341D01*
X52457Y-16512D01*
X52679Y-16604D01*
X52919Y-16604D01*
X53141Y-16512D01*
X53312Y-16342D01*
X53404Y-16120D01*
X53404Y-15880D01*
X53404Y-17974D01*
X53396Y-17974D01*
X53203Y-18054D01*
X53055Y-18202D01*
X52999Y-18335D01*
X52945Y-18203D01*
X52797Y-18055D01*
X52604Y-17975D01*
X52396Y-17974D01*
X52203Y-18054D01*
X52055Y-18202D01*
X51999Y-18335D01*
X51945Y-18203D01*
X51797Y-18055D01*
X51604Y-17975D01*
X51396Y-17974D01*
X51203Y-18054D01*
X51108Y-18148D01*
X51108Y-15094D01*
X51108Y-13594D01*
X51098Y-13354D01*
X51026Y-13179D01*
X50925Y-13145D01*
X50854Y-13216D01*
X50854Y-13074D01*
X50820Y-12973D01*
X50594Y-12891D01*
X50354Y-12901D01*
X50179Y-12973D01*
X50145Y-13074D01*
X50500Y-13429D01*
X50854Y-13074D01*
X50854Y-13216D01*
X50570Y-13500D01*
X50925Y-13854D01*
X51026Y-13820D01*
X51108Y-13594D01*
X51108Y-15094D01*
X51098Y-14854D01*
X51026Y-14679D01*
X50925Y-14645D01*
X50854Y-14716D01*
X50854Y-14574D01*
X50854Y-13925D01*
X50500Y-13570D01*
X50429Y-13641D01*
X50429Y-13500D01*
X50074Y-13145D01*
X50015Y-13165D01*
X50012Y-13158D01*
X49842Y-12987D01*
X49620Y-12895D01*
X49380Y-12895D01*
X49158Y-12987D01*
X48999Y-13145D01*
X48842Y-12987D01*
X48620Y-12895D01*
X48380Y-12895D01*
X48158Y-12987D01*
X47999Y-13145D01*
X47842Y-12987D01*
X47620Y-12895D01*
X47380Y-12895D01*
X47158Y-12987D01*
X46987Y-13157D01*
X46895Y-13379D01*
X46895Y-13619D01*
X46987Y-13841D01*
X47157Y-14012D01*
X47379Y-14104D01*
X47619Y-14104D01*
X47841Y-14012D01*
X48000Y-13854D01*
X48157Y-14012D01*
X48379Y-14104D01*
X48619Y-14104D01*
X48841Y-14012D01*
X49000Y-13854D01*
X49157Y-14012D01*
X49379Y-14104D01*
X49619Y-14104D01*
X49841Y-14012D01*
X50012Y-13842D01*
X50015Y-13834D01*
X50074Y-13854D01*
X50429Y-13500D01*
X50429Y-13641D01*
X50145Y-13925D01*
X50179Y-14026D01*
X50405Y-14108D01*
X50645Y-14098D01*
X50820Y-14026D01*
X50854Y-13925D01*
X50854Y-14574D01*
X50820Y-14473D01*
X50594Y-14391D01*
X50354Y-14401D01*
X50179Y-14473D01*
X50145Y-14574D01*
X50500Y-14929D01*
X50854Y-14574D01*
X50854Y-14716D01*
X50570Y-15000D01*
X50925Y-15354D01*
X51026Y-15320D01*
X51108Y-15094D01*
X51108Y-18148D01*
X51055Y-18202D01*
X50999Y-18335D01*
X50945Y-18203D01*
X50854Y-18112D01*
X50854Y-15425D01*
X50500Y-15070D01*
X50429Y-15141D01*
X50429Y-15000D01*
X50074Y-14645D01*
X50015Y-14665D01*
X50012Y-14658D01*
X49842Y-14487D01*
X49620Y-14395D01*
X49380Y-14395D01*
X49158Y-14487D01*
X48999Y-14645D01*
X48842Y-14487D01*
X48620Y-14395D01*
X48380Y-14395D01*
X48158Y-14487D01*
X47999Y-14645D01*
X47842Y-14487D01*
X47620Y-14395D01*
X47380Y-14395D01*
X47158Y-14487D01*
X46987Y-14657D01*
X46895Y-14879D01*
X46895Y-15119D01*
X46987Y-15341D01*
X47157Y-15512D01*
X47379Y-15604D01*
X47619Y-15604D01*
X47841Y-15512D01*
X48000Y-15354D01*
X48157Y-15512D01*
X48379Y-15604D01*
X48619Y-15604D01*
X48841Y-15512D01*
X49000Y-15354D01*
X49157Y-15512D01*
X49379Y-15604D01*
X49619Y-15604D01*
X49841Y-15512D01*
X50012Y-15342D01*
X50015Y-15334D01*
X50074Y-15354D01*
X50429Y-15000D01*
X50429Y-15141D01*
X50145Y-15425D01*
X50179Y-15526D01*
X50405Y-15608D01*
X50645Y-15598D01*
X50820Y-15526D01*
X50854Y-15425D01*
X50854Y-18112D01*
X50797Y-18055D01*
X50604Y-17975D01*
X50396Y-17974D01*
X50203Y-18054D01*
X50055Y-18202D01*
X49999Y-18335D01*
X49945Y-18203D01*
X49797Y-18055D01*
X49604Y-17975D01*
X49396Y-17974D01*
X49203Y-18054D01*
X49055Y-18202D01*
X48975Y-18395D01*
X48974Y-18603D01*
X49054Y-18797D01*
X49202Y-18944D01*
X49395Y-19024D01*
X49603Y-19025D01*
X49797Y-18945D01*
X49944Y-18797D01*
X50000Y-18664D01*
X50054Y-18797D01*
X50202Y-18944D01*
X50395Y-19024D01*
X50603Y-19025D01*
X50797Y-18945D01*
X50944Y-18797D01*
X51000Y-18664D01*
X51054Y-18797D01*
X51202Y-18944D01*
X51395Y-19024D01*
X51603Y-19025D01*
X51797Y-18945D01*
X51944Y-18797D01*
X52000Y-18664D01*
X52054Y-18797D01*
X52202Y-18944D01*
X52395Y-19024D01*
X52603Y-19025D01*
X52797Y-18945D01*
X52944Y-18797D01*
X53000Y-18664D01*
X53054Y-18797D01*
X53202Y-18944D01*
X53395Y-19024D01*
X53603Y-19025D01*
X53797Y-18945D01*
X53944Y-18797D01*
X54000Y-18664D01*
X54054Y-18797D01*
X54202Y-18944D01*
X54395Y-19024D01*
X54603Y-19025D01*
X54797Y-18945D01*
X54944Y-18797D01*
X55000Y-18664D01*
X55054Y-18797D01*
X55202Y-18944D01*
X55395Y-19024D01*
X55603Y-19025D01*
X55797Y-18945D01*
X55944Y-18797D01*
X56000Y-18664D01*
X56054Y-18797D01*
X56202Y-18944D01*
X56395Y-19024D01*
X56603Y-19025D01*
X56797Y-18945D01*
X56944Y-18797D01*
X57000Y-18664D01*
X57054Y-18797D01*
X57202Y-18944D01*
X57395Y-19024D01*
X57603Y-19025D01*
X57797Y-18945D01*
X57944Y-18797D01*
X58000Y-18664D01*
X58054Y-18797D01*
X58202Y-18944D01*
X58395Y-19024D01*
X58603Y-19025D01*
X58797Y-18945D01*
X58944Y-18797D01*
X59000Y-18664D01*
X59054Y-18797D01*
X59202Y-18944D01*
X59395Y-19024D01*
X59603Y-19025D01*
X59797Y-18945D01*
X59944Y-18797D01*
X60000Y-18664D01*
X60054Y-18797D01*
X60202Y-18944D01*
X60395Y-19024D01*
X60603Y-19025D01*
X60797Y-18945D01*
X60944Y-18797D01*
X61000Y-18664D01*
X61054Y-18797D01*
X61202Y-18944D01*
X61395Y-19024D01*
X61603Y-19025D01*
X61797Y-18945D01*
X61944Y-18797D01*
X62000Y-18664D01*
X62054Y-18797D01*
X62202Y-18944D01*
X62395Y-19024D01*
X62603Y-19025D01*
X62797Y-18945D01*
X62944Y-18797D01*
X63024Y-18604D01*
X63025Y-18396D01*
X63025Y-21396D01*
X62945Y-21203D01*
X62797Y-21055D01*
X62604Y-20975D01*
X62396Y-20974D01*
X62203Y-21054D01*
X62055Y-21202D01*
X61999Y-21335D01*
X61945Y-21203D01*
X61797Y-21055D01*
X61604Y-20975D01*
X61396Y-20974D01*
X61203Y-21054D01*
X61055Y-21202D01*
X60999Y-21335D01*
X60945Y-21203D01*
X60797Y-21055D01*
X60604Y-20975D01*
X60396Y-20974D01*
X60203Y-21054D01*
X60055Y-21202D01*
X59999Y-21335D01*
X59945Y-21203D01*
X59797Y-21055D01*
X59604Y-20975D01*
X59396Y-20974D01*
X59203Y-21054D01*
X59055Y-21202D01*
X58999Y-21335D01*
X58945Y-21203D01*
X58797Y-21055D01*
X58604Y-20975D01*
X58396Y-20974D01*
X58203Y-21054D01*
X58055Y-21202D01*
X57999Y-21335D01*
X57945Y-21203D01*
X57797Y-21055D01*
X57604Y-20975D01*
X57396Y-20974D01*
X57203Y-21054D01*
X57055Y-21202D01*
X57002Y-21328D01*
X56960Y-21227D01*
X56867Y-21202D01*
X56797Y-21273D01*
X56797Y-21132D01*
X56772Y-21039D01*
X56575Y-20970D01*
X56367Y-20981D01*
X56227Y-21039D01*
X56202Y-21132D01*
X56500Y-21429D01*
X56797Y-21132D01*
X56797Y-21273D01*
X56570Y-21500D01*
X56867Y-21797D01*
X56960Y-21772D01*
X56999Y-21662D01*
X57054Y-21797D01*
X57202Y-21944D01*
X57395Y-22024D01*
X57603Y-22025D01*
X57797Y-21945D01*
X57944Y-21797D01*
X58000Y-21664D01*
X58054Y-21797D01*
X58202Y-21944D01*
X58395Y-22024D01*
X58603Y-22025D01*
X58797Y-21945D01*
X58944Y-21797D01*
X59000Y-21664D01*
X59054Y-21797D01*
X59202Y-21944D01*
X59395Y-22024D01*
X59603Y-22025D01*
X59797Y-21945D01*
X59944Y-21797D01*
X60000Y-21664D01*
X60054Y-21797D01*
X60202Y-21944D01*
X60395Y-22024D01*
X60603Y-22025D01*
X60797Y-21945D01*
X60944Y-21797D01*
X61000Y-21664D01*
X61054Y-21797D01*
X61202Y-21944D01*
X61395Y-22024D01*
X61603Y-22025D01*
X61797Y-21945D01*
X61944Y-21797D01*
X62000Y-21664D01*
X62054Y-21797D01*
X62202Y-21944D01*
X62395Y-22024D01*
X62603Y-22025D01*
X62797Y-21945D01*
X62944Y-21797D01*
X63024Y-21604D01*
X63025Y-21396D01*
X63025Y-26230D01*
X61670Y-26230D01*
X61683Y-26225D01*
X61830Y-26077D01*
X61910Y-25884D01*
X61911Y-25676D01*
X61911Y-23116D01*
X61831Y-22923D01*
X61683Y-22775D01*
X61490Y-22695D01*
X61282Y-22694D01*
X61089Y-22774D01*
X60941Y-22922D01*
X60861Y-23115D01*
X60860Y-23323D01*
X60940Y-23517D01*
X61088Y-23664D01*
X61281Y-23744D01*
X61489Y-23745D01*
X61683Y-23665D01*
X61830Y-23517D01*
X61910Y-23324D01*
X61911Y-23116D01*
X61911Y-25676D01*
X61831Y-25483D01*
X61683Y-25335D01*
X61490Y-25255D01*
X61282Y-25254D01*
X61089Y-25334D01*
X60941Y-25482D01*
X60861Y-25675D01*
X60860Y-25883D01*
X60940Y-26077D01*
X61088Y-26224D01*
X61101Y-26230D01*
X60143Y-26230D01*
X60143Y-25855D01*
X60143Y-23295D01*
X60132Y-23087D01*
X60074Y-22947D01*
X59981Y-22922D01*
X59911Y-22993D01*
X59911Y-22852D01*
X59886Y-22759D01*
X59689Y-22690D01*
X59481Y-22701D01*
X59341Y-22759D01*
X59316Y-22852D01*
X59614Y-23149D01*
X59911Y-22852D01*
X59911Y-22993D01*
X59684Y-23220D01*
X59981Y-23517D01*
X60074Y-23492D01*
X60143Y-23295D01*
X60143Y-25855D01*
X60132Y-25647D01*
X60074Y-25507D01*
X59981Y-25482D01*
X59911Y-25553D01*
X59911Y-25412D01*
X59911Y-23587D01*
X59614Y-23290D01*
X59543Y-23361D01*
X59543Y-23220D01*
X59246Y-22922D01*
X59153Y-22947D01*
X59084Y-23144D01*
X59095Y-23352D01*
X59153Y-23492D01*
X59246Y-23517D01*
X59543Y-23220D01*
X59543Y-23361D01*
X59316Y-23587D01*
X59341Y-23680D01*
X59538Y-23749D01*
X59746Y-23738D01*
X59886Y-23680D01*
X59911Y-23587D01*
X59911Y-25412D01*
X59886Y-25319D01*
X59689Y-25250D01*
X59481Y-25261D01*
X59341Y-25319D01*
X59316Y-25412D01*
X59614Y-25709D01*
X59911Y-25412D01*
X59911Y-25553D01*
X59684Y-25780D01*
X59981Y-26077D01*
X60074Y-26052D01*
X60143Y-25855D01*
X60143Y-26230D01*
X59889Y-26230D01*
X59911Y-26147D01*
X59614Y-25850D01*
X59543Y-25921D01*
X59543Y-25780D01*
X59246Y-25482D01*
X59153Y-25507D01*
X59084Y-25704D01*
X59095Y-25912D01*
X59153Y-26052D01*
X59246Y-26077D01*
X59543Y-25780D01*
X59543Y-25921D01*
X59316Y-26147D01*
X59338Y-26230D01*
X57670Y-26230D01*
X57683Y-26225D01*
X57830Y-26077D01*
X57910Y-25884D01*
X57911Y-25676D01*
X57911Y-23116D01*
X57831Y-22923D01*
X57683Y-22775D01*
X57490Y-22695D01*
X57282Y-22694D01*
X57089Y-22774D01*
X56941Y-22922D01*
X56861Y-23115D01*
X56860Y-23323D01*
X56940Y-23517D01*
X57088Y-23664D01*
X57281Y-23744D01*
X57489Y-23745D01*
X57683Y-23665D01*
X57830Y-23517D01*
X57910Y-23324D01*
X57911Y-23116D01*
X57911Y-25676D01*
X57831Y-25483D01*
X57683Y-25335D01*
X57490Y-25255D01*
X57282Y-25254D01*
X57089Y-25334D01*
X56941Y-25482D01*
X56861Y-25675D01*
X56860Y-25883D01*
X56940Y-26077D01*
X57088Y-26224D01*
X57101Y-26230D01*
X56797Y-26230D01*
X56797Y-21867D01*
X56500Y-21570D01*
X56429Y-21641D01*
X56429Y-21500D01*
X56132Y-21202D01*
X56039Y-21227D01*
X56000Y-21337D01*
X55945Y-21203D01*
X55797Y-21055D01*
X55604Y-20975D01*
X55396Y-20974D01*
X55203Y-21054D01*
X55055Y-21202D01*
X54999Y-21335D01*
X54945Y-21203D01*
X54797Y-21055D01*
X54604Y-20975D01*
X54396Y-20974D01*
X54203Y-21054D01*
X54055Y-21202D01*
X53999Y-21335D01*
X53945Y-21203D01*
X53797Y-21055D01*
X53604Y-20975D01*
X53396Y-20974D01*
X53203Y-21054D01*
X53055Y-21202D01*
X52999Y-21335D01*
X52945Y-21203D01*
X52797Y-21055D01*
X52604Y-20975D01*
X52396Y-20974D01*
X52203Y-21054D01*
X52055Y-21202D01*
X51999Y-21335D01*
X51945Y-21203D01*
X51797Y-21055D01*
X51604Y-20975D01*
X51396Y-20974D01*
X51203Y-21054D01*
X51055Y-21202D01*
X50999Y-21335D01*
X50945Y-21203D01*
X50797Y-21055D01*
X50604Y-20975D01*
X50396Y-20974D01*
X50203Y-21054D01*
X50055Y-21202D01*
X50025Y-21274D01*
X50025Y-21175D01*
X49987Y-21083D01*
X49916Y-21013D01*
X49824Y-20975D01*
X49725Y-20974D01*
X49175Y-20974D01*
X49083Y-21012D01*
X49013Y-21083D01*
X48975Y-21175D01*
X48974Y-21274D01*
X48974Y-21824D01*
X49012Y-21916D01*
X49083Y-21986D01*
X49175Y-22024D01*
X49274Y-22025D01*
X49824Y-22025D01*
X49916Y-21987D01*
X49986Y-21916D01*
X50024Y-21824D01*
X50025Y-21725D01*
X50025Y-21725D01*
X50054Y-21797D01*
X50202Y-21944D01*
X50395Y-22024D01*
X50603Y-22025D01*
X50797Y-21945D01*
X50944Y-21797D01*
X51000Y-21664D01*
X51054Y-21797D01*
X51202Y-21944D01*
X51395Y-22024D01*
X51603Y-22025D01*
X51797Y-21945D01*
X51944Y-21797D01*
X52000Y-21664D01*
X52054Y-21797D01*
X52202Y-21944D01*
X52395Y-22024D01*
X52603Y-22025D01*
X52797Y-21945D01*
X52944Y-21797D01*
X53000Y-21664D01*
X53054Y-21797D01*
X53202Y-21944D01*
X53395Y-22024D01*
X53603Y-22025D01*
X53797Y-21945D01*
X53944Y-21797D01*
X54000Y-21664D01*
X54054Y-21797D01*
X54202Y-21944D01*
X54395Y-22024D01*
X54603Y-22025D01*
X54797Y-21945D01*
X54944Y-21797D01*
X55000Y-21664D01*
X55054Y-21797D01*
X55202Y-21944D01*
X55395Y-22024D01*
X55603Y-22025D01*
X55797Y-21945D01*
X55944Y-21797D01*
X55997Y-21671D01*
X56039Y-21772D01*
X56132Y-21797D01*
X56429Y-21500D01*
X56429Y-21641D01*
X56202Y-21867D01*
X56227Y-21960D01*
X56424Y-22029D01*
X56632Y-22018D01*
X56772Y-21960D01*
X56797Y-21867D01*
X56797Y-26230D01*
X56143Y-26230D01*
X56143Y-25855D01*
X56143Y-23295D01*
X56132Y-23087D01*
X56074Y-22947D01*
X55981Y-22922D01*
X55911Y-22993D01*
X55911Y-22852D01*
X55886Y-22759D01*
X55689Y-22690D01*
X55481Y-22701D01*
X55341Y-22759D01*
X55316Y-22852D01*
X55614Y-23149D01*
X55911Y-22852D01*
X55911Y-22993D01*
X55684Y-23220D01*
X55981Y-23517D01*
X56074Y-23492D01*
X56143Y-23295D01*
X56143Y-25855D01*
X56132Y-25647D01*
X56074Y-25507D01*
X55981Y-25482D01*
X55911Y-25553D01*
X55911Y-25412D01*
X55911Y-23587D01*
X55614Y-23290D01*
X55543Y-23361D01*
X55543Y-23220D01*
X55246Y-22922D01*
X55153Y-22947D01*
X55084Y-23144D01*
X55095Y-23352D01*
X55153Y-23492D01*
X55246Y-23517D01*
X55543Y-23220D01*
X55543Y-23361D01*
X55316Y-23587D01*
X55341Y-23680D01*
X55538Y-23749D01*
X55746Y-23738D01*
X55886Y-23680D01*
X55911Y-23587D01*
X55911Y-25412D01*
X55886Y-25319D01*
X55689Y-25250D01*
X55481Y-25261D01*
X55341Y-25319D01*
X55316Y-25412D01*
X55614Y-25709D01*
X55911Y-25412D01*
X55911Y-25553D01*
X55684Y-25780D01*
X55981Y-26077D01*
X56074Y-26052D01*
X56143Y-25855D01*
X56143Y-26230D01*
X55889Y-26230D01*
X55911Y-26147D01*
X55614Y-25850D01*
X55543Y-25921D01*
X55543Y-25780D01*
X55246Y-25482D01*
X55153Y-25507D01*
X55084Y-25704D01*
X55095Y-25912D01*
X55153Y-26052D01*
X55246Y-26077D01*
X55543Y-25780D01*
X55543Y-25921D01*
X55316Y-26147D01*
X55338Y-26230D01*
X53775Y-26230D01*
X53775Y-25396D01*
X53695Y-25203D01*
X53547Y-25055D01*
X53354Y-24975D01*
X53146Y-24974D01*
X53025Y-25024D01*
X53025Y-23725D01*
X53025Y-23175D01*
X52987Y-23083D01*
X52916Y-23013D01*
X52824Y-22975D01*
X52725Y-22974D01*
X52175Y-22974D01*
X52083Y-23012D01*
X52013Y-23083D01*
X51975Y-23175D01*
X51974Y-23274D01*
X51974Y-23274D01*
X51945Y-23203D01*
X51797Y-23055D01*
X51604Y-22975D01*
X51396Y-22974D01*
X51203Y-23054D01*
X51055Y-23202D01*
X50999Y-23335D01*
X50945Y-23203D01*
X50797Y-23055D01*
X50604Y-22975D01*
X50396Y-22974D01*
X50203Y-23054D01*
X50055Y-23202D01*
X49975Y-23395D01*
X49974Y-23603D01*
X50054Y-23797D01*
X50202Y-23944D01*
X50395Y-24024D01*
X50603Y-24025D01*
X50797Y-23945D01*
X50944Y-23797D01*
X51000Y-23664D01*
X51054Y-23797D01*
X51202Y-23944D01*
X51395Y-24024D01*
X51603Y-24025D01*
X51797Y-23945D01*
X51944Y-23797D01*
X51974Y-23725D01*
X51974Y-23824D01*
X52012Y-23916D01*
X52083Y-23986D01*
X52175Y-24024D01*
X52274Y-24025D01*
X52824Y-24025D01*
X52916Y-23987D01*
X52986Y-23916D01*
X53024Y-23824D01*
X53025Y-23725D01*
X53025Y-25024D01*
X52953Y-25054D01*
X52805Y-25202D01*
X52725Y-25395D01*
X52724Y-25603D01*
X52804Y-25797D01*
X52952Y-25944D01*
X53145Y-26024D01*
X53353Y-26025D01*
X53547Y-25945D01*
X53694Y-25797D01*
X53774Y-25604D01*
X53775Y-25396D01*
X53775Y-26230D01*
X50275Y-26230D01*
X50275Y-25396D01*
X50195Y-25203D01*
X50047Y-25055D01*
X49854Y-24975D01*
X49646Y-24974D01*
X49453Y-25054D01*
X49305Y-25202D01*
X49225Y-25395D01*
X49224Y-25603D01*
X49304Y-25797D01*
X49452Y-25944D01*
X49645Y-26024D01*
X49853Y-26025D01*
X50047Y-25945D01*
X50194Y-25797D01*
X50274Y-25604D01*
X50275Y-25396D01*
X50275Y-26230D01*
X49025Y-26230D01*
X49025Y-24646D01*
X49025Y-23396D01*
X48945Y-23203D01*
X48858Y-23116D01*
X48858Y-17094D01*
X48848Y-16854D01*
X48776Y-16679D01*
X48675Y-16645D01*
X48604Y-16716D01*
X48604Y-16574D01*
X48570Y-16473D01*
X48344Y-16391D01*
X48104Y-16401D01*
X47929Y-16473D01*
X47895Y-16574D01*
X48250Y-16929D01*
X48604Y-16574D01*
X48604Y-16716D01*
X48320Y-17000D01*
X48675Y-17354D01*
X48776Y-17320D01*
X48858Y-17094D01*
X48858Y-23116D01*
X48854Y-23111D01*
X48854Y-21880D01*
X48762Y-21658D01*
X48604Y-21499D01*
X48762Y-21342D01*
X48854Y-21120D01*
X48854Y-20880D01*
X48762Y-20658D01*
X48604Y-20499D01*
X48762Y-20342D01*
X48854Y-20120D01*
X48854Y-19880D01*
X48762Y-19658D01*
X48604Y-19499D01*
X48762Y-19342D01*
X48854Y-19120D01*
X48854Y-18880D01*
X48762Y-18658D01*
X48604Y-18499D01*
X48762Y-18342D01*
X48854Y-18120D01*
X48854Y-17880D01*
X48762Y-17658D01*
X48592Y-17487D01*
X48584Y-17484D01*
X48604Y-17425D01*
X48250Y-17070D01*
X48179Y-17141D01*
X48179Y-17000D01*
X47824Y-16645D01*
X47723Y-16679D01*
X47641Y-16905D01*
X47651Y-17145D01*
X47723Y-17320D01*
X47824Y-17354D01*
X48179Y-17000D01*
X48179Y-17141D01*
X47895Y-17425D01*
X47915Y-17484D01*
X47908Y-17487D01*
X47737Y-17657D01*
X47645Y-17879D01*
X47645Y-18119D01*
X47737Y-18341D01*
X47895Y-18500D01*
X47737Y-18657D01*
X47645Y-18879D01*
X47645Y-19119D01*
X47737Y-19341D01*
X47895Y-19500D01*
X47737Y-19657D01*
X47645Y-19879D01*
X47645Y-20119D01*
X47737Y-20341D01*
X47895Y-20500D01*
X47737Y-20657D01*
X47645Y-20879D01*
X47645Y-21119D01*
X47737Y-21341D01*
X47895Y-21500D01*
X47737Y-21657D01*
X47645Y-21879D01*
X47645Y-22119D01*
X47737Y-22341D01*
X47907Y-22512D01*
X48129Y-22604D01*
X48369Y-22604D01*
X48591Y-22512D01*
X48762Y-22342D01*
X48854Y-22120D01*
X48854Y-21880D01*
X48854Y-23111D01*
X48797Y-23055D01*
X48604Y-22975D01*
X48396Y-22974D01*
X48203Y-23054D01*
X48055Y-23202D01*
X47975Y-23395D01*
X47974Y-23603D01*
X48054Y-23797D01*
X48202Y-23944D01*
X48395Y-24024D01*
X48603Y-24025D01*
X48797Y-23945D01*
X48944Y-23797D01*
X49024Y-23604D01*
X49025Y-23396D01*
X49025Y-24646D01*
X48945Y-24453D01*
X48797Y-24305D01*
X48604Y-24225D01*
X48396Y-24224D01*
X48203Y-24304D01*
X48055Y-24452D01*
X47975Y-24645D01*
X47974Y-24853D01*
X48054Y-25047D01*
X48202Y-25194D01*
X48395Y-25274D01*
X48603Y-25275D01*
X48797Y-25195D01*
X48944Y-25047D01*
X49024Y-24854D01*
X49025Y-24646D01*
X49025Y-26230D01*
X46550Y-26230D01*
X46550Y-12550D01*
X64499Y-12550D01*
X64356Y-12609D01*
X64060Y-12904D01*
X63900Y-13290D01*
X63899Y-13707D01*
X64059Y-14094D01*
X64354Y-14389D01*
X64740Y-14549D01*
X65157Y-14550D01*
X65544Y-14390D01*
X65839Y-14095D01*
X65999Y-13709D01*
X66000Y-13292D01*
X65840Y-12906D01*
X65545Y-12610D01*
X65400Y-12550D01*
X67230Y-12550D01*
X67230Y-17230D01*
X67154Y-17206D01*
X67083Y-17277D01*
X67083Y-17135D01*
X67052Y-17038D01*
X66837Y-16960D01*
X66609Y-16970D01*
X66447Y-17038D01*
X66416Y-17135D01*
X66750Y-17469D01*
X67083Y-17135D01*
X67083Y-17277D01*
X66820Y-17540D01*
X67154Y-17873D01*
X67230Y-17849D01*
X67230Y-21127D01*
X67083Y-20980D01*
X67083Y-17944D01*
X66750Y-17610D01*
X66679Y-17681D01*
X66679Y-17540D01*
X66345Y-17206D01*
X66248Y-17237D01*
X66170Y-17452D01*
X66180Y-17680D01*
X66248Y-17842D01*
X66345Y-17873D01*
X66679Y-17540D01*
X66679Y-17681D01*
X66416Y-17944D01*
X66447Y-18041D01*
X66662Y-18119D01*
X66890Y-18109D01*
X67052Y-18041D01*
X67083Y-17944D01*
X67083Y-20980D01*
X67076Y-20972D01*
X66864Y-20885D01*
X66636Y-20884D01*
X66424Y-20972D01*
X66262Y-21133D01*
X66175Y-21345D01*
X66174Y-21573D01*
X66262Y-21785D01*
X66423Y-21947D01*
X66635Y-22034D01*
X66863Y-22035D01*
X67075Y-21947D01*
X67230Y-21792D01*
X67230Y-26230D01*
M02*
